<svg width="200" height="200" viewBox="0 0 200 200" fill="none" xmlns="http://www.w3.org/2000/svg">
<g clip-path="url(#clip0)">
<path d="M91.6408 144C92.0408 161.2 73.4742 189.5 64.1408 201.5H136.141C126.807 189.5 108.241 161.2 108.641 144C117.141 157.5 142.441 179.7 175.641 160.5C217.141 136.5 192.141 77.5 157.641 74.5C151.974 74.1667 140.041 74 137.641 76C149.807 56.6667 156.5 -1 100 -1C46 -1 50.4741 56.6667 62.6408 76C60.2408 74 48.3075 74.1667 42.6408 74.5C8.14082 77.5 -16.8592 136.5 24.6408 160.5C57.8408 179.7 83.1408 157.5 91.6408 144Z" fill="black"/>
</g>
<defs>
<clipPath id="clip0">
<rect width="200" height="200" fill="white"/>
</clipPath>
</defs>
</svg>
