<svg width="150" height="150" viewBox="0 0 150 150" fill="none" xmlns="http://www.w3.org/2000/svg">
<path d="M72.745 33.9053V21.0534L69.0919 21V19.5374H72.745V15H74.8346V19.5374L78.4883 19.5907V21.164L74.8346 21.108V33.9053H72.745" fill="#85C3B9"/>
<path d="M73.7909 27.1386C69.0919 27.1386 65.2826 30.948 65.2826 35.6467C65.2826 37.3187 65.7721 38.8733 66.6059 40.1893C66.8867 40.0027 67.1753 39.832 67.4821 39.704C70.4455 38.4147 71.6059 40.6067 74.3127 41.1213C76.8537 41.6053 78.943 39.7293 81.3217 39.6C81.943 38.4173 82.299 37.0747 82.299 35.6467C82.299 30.948 78.4897 27.1386 73.7909 27.1386" fill="#F9AC16"/>
<path d="M74.3128 41.1213C71.606 40.6053 70.4456 38.4147 67.4826 39.704C67.1753 39.832 66.8868 40.0027 66.606 40.1893C68.1138 42.5693 70.7649 44.1547 73.7909 44.1547C77.0617 44.1547 79.8977 42.3067 81.3217 39.6C78.943 39.7293 76.8537 41.6053 74.3128 41.1213" fill="#E18017"/>
<path d="M77.6323 32.2853C76.1269 32.2853 73.7976 31.3787 73.282 30.5533C72.7955 29.5813 73.1111 28.6093 73.7976 28.6093C73.8392 28.6093 73.882 28.6133 73.9263 28.62L74.9569 28.2334C76.3749 28.492 81.6589 30.1667 78.5656 32.1C78.3336 32.2294 78.0096 32.2853 77.6323 32.2853" fill="#FBC03B"/>
<path d="M66.3231 33.5187C67.6122 33.776 68.5143 36.4827 67.483 37.3853C65.5493 39.3187 65.5493 35.0653 65.8081 34.0347L66.3231 33.5187Z" fill="#E99113"/>
<path d="M69.8034 34.164C69.0288 34.4213 68.5143 35.8387 69.0288 36.9987C69.5444 38.1587 71.0924 38.6733 71.7362 37.2573C72.2518 35.968 71.0924 35.452 70.3184 34.5493L69.8034 34.164" fill="#E99113"/>
<path d="M75.2159 34.292C73.7987 34.164 73.283 35.4519 73.7988 36.6119C75.3444 39.5759 77.7937 35.5813 74.9581 34.5493L75.2159 34.292" fill="#E99113"/>
<path d="M81.015 34.164C80.7577 33.648 79.3403 34.5493 79.211 35.7107C78.9536 38.416 83.2057 37.772 81.2737 34.6787L81.015 34.164Z" fill="#E99113"/>
<path d="M114.3 54.9626C109.771 53.376 105.29 52.9266 101.038 53.196C107.372 57.0386 111.611 63.2893 112.342 71.1533C112.8 77.116 111.883 83.7679 109.59 89.2719C108.24 92.8146 107.132 97.4666 105.275 101.144C105.791 101.269 106.31 101.373 106.838 101.429C110.035 101.707 113.231 101.151 116.428 100.667C122.535 93.184 123.367 83.044 123.367 73.2173C123.367 69.2906 120.172 60.7866 114.3 54.9626Z" fill="#D21D2E"/>
<path d="M103.539 100.601C104.106 100.813 104.679 100.996 105.259 101.139C104.679 100.993 104.106 100.815 103.539 100.601ZM99.9937 98.912C101.115 99.5386 102.248 100.107 103.406 100.549C102.248 100.105 101.115 99.54 99.9937 98.912ZM49.9206 99.536L49.743 99.8386L49.9206 99.536ZM50.5982 98.5773L50.3706 98.856L50.5982 98.5773ZM47.6611 101.275L47.9242 101.175L47.6611 101.275ZM47.0554 101.456L46.8054 101.516L47.0554 101.456ZM44.9163 101.503C45.0455 101.525 45.1737 101.541 45.3013 101.556C45.1742 101.543 45.0455 101.525 44.9163 101.503ZM45.7502 101.587L46.0638 101.596L45.7502 101.587ZM43.5638 101.149C43.9023 101.261 44.2294 101.351 44.5534 101.425C44.231 101.352 43.9018 101.26 43.5638 101.149ZM51.3747 97.8093L51.1611 98.0027L51.3747 97.8093ZM122.991 59.492C120.107 57.4413 117.195 55.9746 114.3 54.9626C120.172 60.7866 123.367 69.2906 123.367 73.2173C123.367 83.044 122.535 93.184 116.428 100.667C113.231 101.151 110.034 101.707 106.838 101.429C106.31 101.373 105.791 101.269 105.276 101.141C107.132 97.4653 108.24 92.8146 109.59 89.2733C111.883 83.768 112.8 77.116 112.342 71.1533C111.611 63.2893 107.372 57.0386 101.038 53.196C97.6003 53.4146 94.3137 54.1026 91.2777 55.0506C97.2497 58.98 99.0523 65.7546 99.9563 72.7586C100.847 81.1226 101.168 89.8986 98.275 97.9133C94.3457 95.5653 90.495 93.024 86.2017 93.5826C88.0843 88.492 88.9777 83.6066 89.1763 78.0333C89.6337 70.016 90.091 64.0573 87.8083 56.272C80.7577 59.056 75.5017 62.892 73.5835 64.4013C72.2977 63.3506 67.0539 59.2906 59.7002 56.3266C57.8159 63.0933 58.7602 69.24 59.3586 76.428C60.0263 83.5493 61.1362 90.6693 63.2955 97.58C63.131 97.4853 62.9659 97.3893 62.7993 97.3C59.6274 95.8733 55.2518 95.436 52.2461 97.1946L52.2482 97.1933C46.3149 84.9946 44.4971 64.204 53.8554 54.38C50.4185 53.4826 46.6971 52.956 42.8217 53.0813C38.0097 57.692 36.4862 66.1786 36.6523 72.3C36.6523 78.2626 38.7159 83.9973 40.5507 89.5013C41.2127 91.8173 42.2335 97.5787 43.5247 101.136C42.8217 100.901 42.0778 100.605 41.2393 100.281C39.5789 99.5706 38.0403 99.7786 36.4982 99.9866C35.0586 100.181 33.6149 100.376 32.0643 99.8226C27.9362 98.2173 26.3007 88.8133 25.3826 84.9146C24.2362 78.9506 24.9545 73.2173 26.3305 67.2533C27.5045 62.3893 29.2987 58.996 31.6982 55.372C29.1805 56.3693 26.6487 57.7053 24.1362 59.492C24.1362 59.492 7.005 84.316 35.7466 111.064C35.7466 111.064 41.8269 116.096 44.0138 111.064C46.2002 106.033 47.7909 106.033 47.7909 106.033C47.7909 106.033 63.7305 124.036 73.369 105.256L73.4149 101.684L73.5034 94.8186L73.6701 101.625L73.7581 105.256C83.3977 124.036 99.3363 106.033 99.3363 106.033C99.3363 106.033 100.927 106.033 103.114 111.064C105.3 116.096 111.38 111.064 111.38 111.064C115.428 107.251 118.647 103.595 121.191 100.111C139.244 75.392 122.991 59.492 122.991 59.492" fill="#A91F28"/>
<path d="M59.7002 56.3266C57.8711 55.5893 55.9179 54.9173 53.8554 54.38C44.4971 64.204 46.3148 84.9946 52.2482 97.1933C55.2544 95.436 59.6278 95.8733 62.7992 97.3C62.9659 97.3893 63.131 97.4853 63.2955 97.58C61.1362 90.6693 60.0268 83.5493 59.3586 76.428C58.7602 69.24 57.8159 63.0933 59.7002 56.3266Z" fill="#D21D2E"/>
<path d="M99.9563 72.7586C99.0523 65.7546 97.2497 58.98 91.2777 55.0506C90.0817 55.4253 88.9203 55.8333 87.8083 56.272C90.091 64.0573 89.6337 70.016 89.1763 78.0333C88.9777 83.6067 88.0843 88.492 86.203 93.5826C90.495 93.024 94.3457 95.5653 98.275 97.9133C101.168 89.8986 100.847 81.1226 99.9563 72.7586Z" fill="#D21D2E"/>
<path d="M36.6524 72.3C36.4862 66.1786 38.0097 57.6919 42.8217 53.0813C39.2144 53.1973 35.4726 53.8773 31.6988 55.3719C29.2988 58.9959 27.5045 62.3893 26.3305 67.2533C24.9545 73.2173 24.2362 78.9506 25.3826 84.9146C26.3008 88.8133 27.9362 98.2173 32.0644 99.8226C35.2758 100.969 38.0284 98.9066 41.2393 100.281C42.0778 100.605 42.8217 100.901 43.5248 101.136C42.2336 97.5786 41.2128 91.8173 40.5508 89.5013C38.716 83.9973 36.6524 78.2626 36.6524 72.3Z" fill="#D21D2E"/>
<path d="M62.5689 54.3466L57.1763 52.3213C49.8695 48.7853 42.7257 49.3293 42.7257 49.3293C42.2564 49.2973 41.8069 49.2906 41.3517 49.276C34.1397 51.9106 31.2663 60.1826 30.7596 67.2786C30.2153 78.9733 33.4788 91.4826 38.3741 102.089C39.6913 105.476 41.7872 108.604 43.7653 111.74C47.4539 109.856 50.3403 106.033 50.3403 106.033C45.1731 94.0667 42.7257 86.316 43.5413 73.5333C43.8137 65.9187 44.6293 56.128 53.3325 53.6813C54.5107 53.176 57.9815 53.5053 60.7132 54.0226L62.5689 54.3466" fill="#F9AD18"/>
<path d="M16.3455 83.3239C18.4117 96.2386 32.9815 111.104 38.9997 112.625C37.5086 111.491 36.2127 110.143 34.8387 108.616C26.1367 98.2813 21.5127 87.4039 21.7851 73.5333C21.9935 63.4999 29.9237 50.7453 41.3518 49.2759C20.557 48.1599 14.3789 71.0346 16.3455 83.3239Z" fill="#F9AD18"/>
<path d="M29.9237 129.624C29.9237 131.504 31.7305 133.027 33.9581 133.027H113.827C116.055 133.027 117.862 131.504 117.862 129.624V109.436C117.862 104.307 116.055 106.033 113.827 106.033H33.9581C31.7305 106.033 29.9237 103.603 29.9237 109.436V129.624Z" fill="#F9AD18"/>
<path d="M85.2537 54.5293L90.0857 52.3213C97.3923 48.7853 104.536 49.3293 104.536 49.3293C105.006 49.2973 107.098 49.2906 107.554 49.276C114.764 51.9106 115.995 60.1826 116.502 67.2786C117.046 78.9733 113.783 91.4826 108.887 102.089C107.57 105.476 105.475 108.604 103.496 111.74C99.8083 109.856 96.9217 106.033 96.9217 106.033C102.09 94.0667 104.536 86.316 103.72 73.5333C103.448 65.9187 102.632 56.128 93.9297 53.6813C92.751 53.176 89.2803 53.5053 86.5483 54.0226L85.2537 54.5293" fill="#F9AD18"/>
<path d="M132.56 83.3239C130.492 96.2386 115.924 111.104 109.906 112.625C111.396 111.491 112.692 110.143 114.066 108.616C122.768 98.2813 127.392 87.4039 127.12 73.5333C126.911 63.4999 124.375 51.5413 107.554 49.2759C132.835 47.9626 134.526 71.0346 132.56 83.3239Z" fill="#F9AD18"/>
<path d="M76.5883 105.687C80.8163 94.9626 86.315 82.552 86.315 70.832C86.315 59.968 86.315 46.2466 75.7083 42.5306H71.5534C60.9471 46.2466 60.9471 59.968 60.9471 70.832C60.9471 82.552 63.7627 94.6986 70.3373 105.291C70.3373 105.291 73.9591 112.356 76.5883 105.687" fill="#F9AD18"/>
<path d="M113.827 106.033C113.827 106.033 114.094 106.127 114.612 106.193C115.126 106.255 115.907 106.301 116.834 106.051C117.762 105.823 118.792 105.203 119.595 104.157C119.983 103.636 120.334 103.012 120.708 102.336C121.08 101.671 121.47 100.971 121.876 100.241C122.672 98.7693 123.512 97.164 124.326 95.432C125.159 93.708 125.939 91.8493 126.744 89.9293C127.5 87.992 128.271 85.98 128.846 83.88C129.182 82.8426 129.386 81.7653 129.656 80.7013C129.838 79.6213 130.092 78.544 130.183 77.4533C130.526 75.2773 130.464 73.0906 130.246 70.968C129.952 68.7733 129.612 66.6733 129.11 64.6666C128.599 62.672 127.948 60.7933 127.028 59.1666C126.115 57.54 124.967 56.16 123.718 55.0893C123.127 54.5146 122.454 54.0866 121.87 53.6106C121.236 53.2013 120.654 52.776 120.068 52.4386C119.479 52.1053 118.926 51.7946 118.415 51.5066C117.887 51.2466 117.402 51.0106 116.963 50.796C116.087 50.3626 115.37 50.0813 114.895 49.86C114.414 49.6493 114.158 49.536 114.158 49.536C114.158 49.536 114.423 49.6253 114.92 49.7933C115.412 49.976 116.162 50.1733 117.066 50.5573C117.522 50.744 118.026 50.9493 118.575 51.1746C119.111 51.4306 119.691 51.708 120.311 52.004C120.927 52.308 121.55 52.6986 122.227 53.0773C122.86 53.524 123.563 53.952 124.206 54.52C125.548 55.5786 126.826 56.9866 127.866 58.6706C128.911 60.3546 129.696 62.3106 130.23 64.376C130.775 66.4333 131.156 68.616 131.476 70.784C131.744 73.032 131.835 75.3546 131.506 77.616C131.394 78.756 131.118 79.8626 130.914 80.976C130.62 82.068 130.394 83.1746 130.036 84.2306C129.418 86.376 128.606 88.4106 127.812 90.3693C126.166 94.268 124.242 97.7146 122.526 100.612C121.638 102.061 120.887 103.363 119.975 104.471C119.036 105.541 117.879 106.129 116.892 106.301C115.903 106.508 115.111 106.365 114.6 106.265C114.084 106.151 113.827 106.033 113.827 106.033" fill="#D06B1C"/>
<path d="M33.958 106.033C33.958 106.033 35.2059 105.987 37.3897 105.904C39.5741 105.851 42.694 105.72 46.4383 105.66C50.1815 105.605 54.5492 105.481 59.2288 105.456C63.9096 105.428 68.9007 105.397 73.8924 105.367C78.8843 105.397 83.8763 105.427 88.5563 105.455C93.2363 105.477 97.6043 105.604 101.347 105.659C105.091 105.717 108.211 105.849 110.396 105.904C112.579 105.987 113.827 106.033 113.827 106.033C113.827 106.033 112.579 106.08 110.396 106.163C108.211 106.216 105.091 106.349 101.347 106.408C97.6043 106.463 93.2363 106.589 88.5563 106.611C83.8763 106.639 78.8843 106.669 73.8924 106.699C68.9007 106.668 63.9096 106.639 59.2288 106.611C54.5492 106.585 50.1815 106.461 46.4383 106.407C42.694 106.347 39.5741 106.216 37.3897 106.161C35.2059 106.08 33.958 106.033 33.958 106.033" fill="#D06B1C"/>
<path d="M24.9972 57.3C24.9972 57.3 24.5497 58.0493 23.7674 59.3587C23.3633 60.0053 22.8565 60.788 22.4764 61.772C22.2644 62.2506 22.0384 62.76 21.7997 63.2973C21.6893 63.5693 21.5425 63.8293 21.4398 64.1213C21.3477 64.416 21.2524 64.7173 21.156 65.0253C20.9628 65.6387 20.7617 66.2786 20.5534 66.9413C20.3278 67.5973 20.2721 68.324 20.1169 69.0413C19.7758 70.4773 19.7436 72.036 19.6013 73.6307C19.5617 74.4293 19.6242 75.2467 19.63 76.0707C19.6212 76.896 19.7154 77.7267 19.8112 78.5653C19.9384 80.2453 20.2961 81.9293 20.642 83.6066L21.2669 86.104C21.5217 86.9213 21.7753 87.736 22.0274 88.5453C22.5826 90.1453 23.1404 91.7213 23.7732 93.2133C24.3972 94.708 25.0289 96.144 25.656 97.4973C26.2925 98.8253 26.8826 100.179 27.4696 101.272C27.7988 101.828 28.0644 102.427 28.406 102.877C28.7696 103.305 29.0764 103.757 29.4352 104.12C29.8336 104.439 30.1836 104.784 30.556 105.029C30.9502 105.232 31.2988 105.467 31.6472 105.599C32.3472 105.861 32.9284 105.985 33.3346 106.021C33.7393 106.051 33.9581 106.033 33.9581 106.033C33.9581 106.033 33.7445 106.076 33.3326 106.095C32.9212 106.099 32.3122 106.063 31.5612 105.844C31.1873 105.737 30.8065 105.528 30.369 105.347C29.956 105.123 29.5592 104.797 29.1034 104.489C28.6862 104.136 28.306 103.677 27.8674 103.228C27.456 102.76 27.1936 102.203 26.8248 101.657C26.1169 100.484 25.5144 99.2653 24.7852 97.9307C24.0826 96.6013 23.355 95.1866 22.695 93.6786C22.0206 92.176 21.3769 90.596 20.8081 88.9587C20.543 88.132 20.2753 87.3 20.0065 86.464C19.7857 85.612 19.5644 84.7587 19.3425 83.904C18.9997 82.1693 18.6493 80.4333 18.531 78.6893C18.4341 77.8227 18.3586 76.9613 18.3925 76.1027C18.4086 75.2467 18.369 74.4013 18.4321 73.5733C18.6034 71.916 18.7436 70.3133 19.169 68.8426C19.3674 68.108 19.466 67.3693 19.733 66.7027C19.983 66.0333 20.2237 65.3853 20.4554 64.7653C20.8398 63.4947 21.5696 62.4773 22.0493 61.524C22.5269 60.556 23.0941 59.8266 23.5529 59.216C24.4717 57.996 24.9972 57.3 24.9972 57.3" fill="#D06B1C"/>
<path d="M30.4237 129.512C30.4237 129.512 31.7977 129.465 34.2024 129.383C36.6065 129.329 40.0425 129.199 44.1638 129.139C48.2857 129.083 53.095 128.96 58.2482 128.935C63.4002 128.907 68.8961 128.877 74.3925 128.847C79.8884 128.876 85.3844 128.907 90.5364 128.935C95.6897 128.956 100.499 129.083 104.62 129.137C108.743 129.196 112.178 129.328 114.583 129.383C116.987 129.465 118.362 129.512 118.362 129.512C118.362 129.512 116.987 129.559 114.583 129.641C112.178 129.696 108.743 129.828 104.62 129.887C100.499 129.941 95.6897 130.068 90.5364 130.091C85.3844 130.119 79.8884 130.148 74.3925 130.179C68.8961 130.148 63.4002 130.117 58.2482 130.089C53.095 130.064 48.2857 129.941 44.1638 129.885C40.0425 129.825 36.6065 129.695 34.2024 129.641C31.7977 129.559 30.4237 129.512 30.4237 129.512" fill="#D06B1C"/>
<path d="M51.495 50.2786C51.495 50.2786 50.4654 50.2053 48.7274 50.5293C47.8586 50.6853 46.8283 50.9919 45.7148 51.4746C44.6102 51.9866 43.4663 52.748 42.3898 53.7546C41.319 54.7786 40.4559 56.1479 39.7466 57.6759C39.4815 58.4826 39.1012 59.268 38.9487 60.1546C38.8455 60.588 38.7408 61.0253 38.6351 61.468C38.5695 61.924 38.5023 62.3826 38.4351 62.8466C38.1528 64.7413 38.0887 66.6213 38.0783 68.6213C38.0774 70.6026 38.1752 72.6186 38.3455 74.6293C38.4867 76.6413 38.6804 78.656 38.9476 80.628C39.1851 82.604 39.5107 84.5386 39.8476 86.4053C40.1887 88.2719 40.5492 90.0693 40.9007 91.7733C41.2892 93.4693 41.6616 95.0733 42.0747 96.5333C42.4711 98 42.881 99.3306 43.2539 100.507C43.6455 101.677 44.0034 102.693 44.3622 103.504C44.682 104.333 45.0034 104.951 45.2163 105.377C45.4288 105.805 45.5424 106.033 45.5424 106.033C45.5424 106.033 45.4075 105.817 45.1544 105.413C44.9044 105.007 44.5012 104.425 44.1274 103.613C43.705 102.823 43.27 101.828 42.7883 100.679C42.3211 99.5253 41.807 98.2133 41.3559 96.7493C40.8726 95.2933 40.4252 93.696 39.9554 92.0026C39.5236 90.3013 39.0611 88.5053 38.7111 86.6213C38.3435 84.7413 37.9856 82.792 37.7154 80.7973C37.4159 78.8053 37.1851 76.772 37.0179 74.7293C36.8747 72.6866 36.8059 70.6333 36.8367 68.6119C36.8716 66.6119 36.983 64.5426 37.294 62.6706C37.3711 62.192 37.4476 61.7173 37.5236 61.2466C37.6502 60.7813 37.7752 60.3213 37.8992 59.8653C38.1034 58.944 38.544 58.1093 38.8659 57.2733C39.6955 55.6706 40.6883 54.2506 41.8799 53.2079C43.0679 52.1693 44.3408 51.4613 45.5258 51.0186C46.7206 50.6013 47.7944 50.3679 48.6887 50.2733C49.5826 50.1746 50.2883 50.1839 50.7654 50.2133C51.244 50.2359 51.495 50.2786 51.495 50.2786Z" fill="#D06B1C"/>
<path d="M98.1404 50.2786C98.1404 50.2786 98.3924 50.2359 98.8697 50.2133C99.347 50.1839 100.054 50.1746 100.947 50.2733C101.842 50.3679 102.916 50.6013 104.11 51.0186C105.295 51.4613 106.567 52.1693 107.756 53.2079C108.948 54.2506 109.94 55.6706 110.77 57.2733C111.091 58.1093 111.532 58.944 111.736 59.8653C111.86 60.3213 111.986 60.7813 112.112 61.2466C112.188 61.7173 112.264 62.192 112.342 62.6706C112.652 64.5426 112.764 66.6119 112.799 68.6119C112.83 70.6333 112.76 72.6866 112.618 74.7293C112.451 76.772 112.22 78.8053 111.92 80.7973C111.65 82.792 111.292 84.7413 110.924 86.6213C110.575 88.5053 110.112 90.3013 109.68 92.0026C109.211 93.696 108.763 95.2933 108.28 96.7493C107.828 98.2133 107.315 99.5253 106.847 100.679C106.366 101.828 105.931 102.823 105.508 103.613C105.135 104.425 104.731 105.007 104.482 105.413C104.228 105.817 104.094 106.033 104.094 106.033C104.094 106.033 104.207 105.805 104.419 105.377C104.632 104.951 104.954 104.333 105.274 103.504C105.632 102.693 105.99 101.677 106.382 100.507C106.755 99.3306 107.164 98 107.562 96.5333C107.974 95.0733 108.346 93.4693 108.735 91.7733C109.087 90.0693 109.447 88.2719 109.788 86.4053C110.124 84.5386 110.451 82.604 110.688 80.628C110.955 78.656 111.148 76.6413 111.29 74.6293C111.46 72.6186 111.559 70.6026 111.558 68.6213C111.547 66.6213 111.483 64.7413 111.2 62.8466C111.134 62.3826 111.066 61.924 111 61.468C110.895 61.0253 110.79 60.588 110.687 60.1546C110.535 59.268 110.154 58.4826 109.89 57.6759C109.179 56.1479 108.316 54.7786 107.246 53.7546C106.17 52.748 105.026 51.9866 103.922 51.4746C102.807 50.9919 101.778 50.6853 100.908 50.5293C99.171 50.2053 98.1404 50.2786 98.1404 50.2786Z" fill="#D06B1C"/>
<path d="M60.7132 54.0226L62.5815 54.2746L62.543 54.4159L57.0887 52.5533L57.0674 52.5453C55.9064 52.1279 54.7955 51.5973 53.608 51.2773L51.8419 50.7626C51.2444 50.6239 50.6403 50.5146 50.0408 50.3879C49.444 50.2493 48.8351 50.1759 48.2274 50.1013C47.6206 50.0199 47.0138 49.9386 46.4023 49.9133C45.7924 49.8693 45.182 49.8279 44.5726 49.8333C43.9674 49.8173 43.346 49.8359 42.7674 49.8746L42.7195 49.8759L42.6883 49.8746L41.3351 49.8413L41.546 49.8079C40.484 50.2573 39.4274 50.7479 38.5206 51.4706C37.5835 52.1453 36.7602 52.9733 36.0335 53.8799C35.2892 54.7733 34.6971 55.7879 34.143 56.8173C33.631 57.8706 33.1586 58.9493 32.8116 60.0773C32.4315 61.1933 32.1774 62.3506 31.9258 63.5039C31.7018 64.6653 31.5231 65.8386 31.4258 67.0213C31.3616 68.1333 31.3815 69.4119 31.3554 70.5999C31.2987 71.8186 31.4392 72.9906 31.496 74.1839L31.6054 75.9666C31.6638 76.5613 31.7544 77.1559 31.8278 77.7506C32.005 78.9359 32.0903 80.1359 32.32 81.3146L32.9607 84.8599L33.7966 88.3693C34.0487 89.5479 34.444 90.6879 34.7731 91.8453C35.0996 93.0053 35.4383 94.1626 35.8512 95.2959C36.257 96.4306 36.595 97.5946 37.0586 98.7093L38.3742 102.089L36.8127 98.8106C36.2826 97.7199 35.8768 96.5773 35.4023 95.4613C34.9242 94.3453 34.5034 93.2079 34.1242 92.0533C33.7502 90.8999 33.3111 89.7639 33.0143 88.5853L32.043 85.0706L31.2654 81.5026C30.9788 80.3173 30.8774 79.0986 30.6867 77.8946C30.6054 77.2906 30.507 76.6893 30.4392 76.0826L30.3044 74.2479C30.2315 73.0279 30.0768 71.7919 30.119 70.5906C30.1326 69.3613 30.093 68.2173 30.1502 66.9186C30.343 64.4639 30.7607 62.0119 31.5763 59.6666C31.9554 58.4879 32.4663 57.3493 33.0252 56.2373C33.6278 55.1466 34.2747 54.0706 35.0903 53.1119C35.8867 52.1426 36.794 51.2519 37.8268 50.5239C38.8294 49.7493 39.9919 49.2173 41.158 48.7453L41.369 48.7119L42.7638 48.7839H42.684C43.3455 48.7626 43.9663 48.7679 44.6012 48.8053C45.2335 48.8239 45.8611 48.8866 46.4878 48.9559C47.1159 49.0053 47.7367 49.1093 48.357 49.2159C48.9783 49.3146 49.5996 49.4119 50.208 49.5773C50.8179 49.7266 51.433 49.8613 52.0383 50.0253L53.8278 50.6173C54.433 50.7893 55.005 51.0493 55.5742 51.3173L57.2851 52.0959L57.2643 52.0879L62.595 54.2773L62.6414 54.3706L62.5559 54.4186L60.7132 54.0226" fill="#FDDE73"/>
<path d="M86.5483 54.0226L85.275 54.5826L85.2003 54.5533L85.2296 54.4773L89.7563 52.2253C90.5283 51.856 91.2897 51.52 92.0577 51.1653C92.4363 50.984 92.8217 50.8133 93.235 50.6906L94.455 50.2866C94.8643 50.16 95.2657 49.9946 95.683 49.912L96.9257 49.612C97.751 49.3866 98.5963 49.2733 99.439 49.1306C100.279 48.976 101.135 48.928 101.984 48.8386C102.844 48.7906 103.686 48.7453 104.578 48.7813H104.498L107.536 48.7H107.555L107.751 48.7346C108.832 49.172 109.908 49.6733 110.831 50.412C111.794 51.0973 112.574 51.9946 113.284 52.92C113.944 53.8826 114.535 54.8933 114.962 55.9653C115.419 57.0253 115.758 58.124 116.042 59.228C116.594 61.444 116.846 63.7 117.032 65.936C117.062 66.512 117.136 67.02 117.128 67.6506L117.136 69.3213C117.152 70.4333 117.152 71.5493 117.055 72.684C116.963 73.808 116.963 74.9493 116.794 76.0586C116.658 77.1733 116.512 78.288 116.344 79.3973L115.7 82.7013C115.486 83.8013 115.172 84.88 114.914 85.9693C114.663 87.0613 114.326 88.1293 113.999 89.2C113.667 90.268 113.334 91.3346 112.927 92.3786C112.527 93.4226 112.18 94.484 111.739 95.5106L110.415 98.5853L111.496 95.4213C111.872 94.3746 112.152 93.2946 112.486 92.2346C112.826 91.176 113.09 90.096 113.356 89.0173C113.639 87.944 113.934 86.8746 114.142 85.784C114.356 84.696 114.627 83.62 114.798 82.524L115.311 79.244L115.659 75.9453C115.814 74.8466 115.795 73.7506 115.872 72.6546C115.956 71.5653 115.944 70.452 115.912 69.336L115.884 67.664C115.891 67.18 115.806 66.58 115.771 66.044C115.664 64.944 115.55 63.8466 115.379 62.7626C115.228 61.6733 114.999 60.6053 114.762 59.544C114.504 58.4893 114.196 57.4466 113.783 56.456C113.396 55.448 112.864 54.5213 112.278 53.6373C111.644 52.796 110.958 51.9786 110.104 51.36C109.291 50.688 108.33 50.2306 107.355 49.8186L107.57 49.8533L104.574 49.8773H104.515H104.494C103.703 49.8146 102.86 49.8253 102.036 49.8413C101.211 49.8986 100.378 49.912 99.5563 50.032C98.7337 50.1413 97.903 50.22 97.0937 50.4106L95.8697 50.6573C95.4563 50.7226 95.071 50.8666 94.671 50.9746C93.8817 51.2293 93.071 51.3813 92.2897 51.72C91.5083 52.024 90.7083 52.3213 89.9417 52.632L85.2776 54.5813L85.2323 54.476L86.5483 54.0226" fill="#FDDE73"/>
<path d="M80.459 95.8879C81.2217 93.5826 81.9977 91.2839 82.6803 88.9626C83.0043 87.7959 83.3724 86.6413 83.643 85.4626C83.9457 84.2933 84.2604 83.1266 84.4897 81.9413L84.867 80.1733L85.1483 78.3893C85.3683 77.2053 85.463 76.0079 85.5764 74.8133C85.7377 73.6213 85.6563 72.4199 85.7323 71.2266C85.755 70.0279 85.7283 68.8026 85.715 67.6C85.675 65.1826 85.5977 62.7706 85.3737 60.3813C85.2444 59.1893 85.1137 57.9973 84.899 56.8239C84.8163 56.2319 84.6803 55.6533 84.5483 55.0746C84.4323 54.4906 84.2817 53.9159 84.1084 53.3519C83.8044 52.2093 83.3923 51.0999 82.8977 50.0426C82.407 48.9786 81.7977 47.98 81.0843 47.0706C80.3657 46.1613 79.519 45.3666 78.587 44.6879C78.0924 44.3919 77.6283 44.0399 77.1097 43.7839L75.5163 43.0799L75.7083 43.1133L71.5534 43.0826L71.7357 43.0506L70.4002 43.5759L69.1316 44.2399L67.9497 45.0506C67.593 45.3693 67.2169 45.668 66.8721 46.0013C66.554 46.36 66.2008 46.6906 65.9076 47.0733C65.6278 47.4653 65.3007 47.8253 65.057 48.2466C64.8122 48.6639 64.5226 49.0573 64.3196 49.5013C64.104 49.9386 63.8597 50.3613 63.6868 50.8199C63.2993 51.7173 62.9576 52.6399 62.6769 53.5826C62.3873 54.5239 62.1565 55.4866 61.957 56.4559C61.5654 58.3959 61.3111 60.3693 61.1133 62.3506C61.1493 60.3599 61.2826 58.3679 61.5774 56.3893C61.7237 55.3999 61.9034 54.4133 62.1445 53.4373C62.381 52.4626 62.6633 51.4919 63.0414 50.5533C63.2054 50.0746 63.4436 49.6239 63.6524 49.1613C63.8488 48.6919 64.1368 48.2679 64.381 47.8213C64.6221 47.3706 64.954 46.9746 65.2378 46.5493C65.5357 46.1333 65.8993 45.7653 66.2284 45.3719C66.5852 45.0013 66.9778 44.6639 67.3518 44.3093L68.5993 43.3906L69.9477 42.6239L71.3706 42.0093L71.5149 41.9786H71.5534L75.7083 41.9479H75.7377L75.9017 41.9813L77.6457 42.7266C78.215 42.9999 78.7337 43.3773 79.2803 43.7013C80.315 44.4346 81.2577 45.3013 82.0564 46.2893C82.8484 47.2746 83.5217 48.3546 84.0604 49.4866C84.603 50.6146 85.0523 51.7893 85.3843 52.9853C85.579 53.5773 85.7163 54.1826 85.835 54.7893C85.9657 55.3933 86.099 55.9986 86.1777 56.6093C86.387 57.8266 86.507 59.048 86.6257 60.2693C86.827 62.7133 86.8764 65.1546 86.8897 67.5893C86.8897 68.8106 86.903 70.0119 86.867 71.2386C86.787 72.4639 86.7977 73.7013 86.6017 74.9133C86.4457 76.1293 86.3057 77.3479 86.043 78.5439L85.695 80.3426L85.2537 82.1199C84.979 83.3093 84.627 84.4759 84.275 85.6426C83.9377 86.8133 83.5043 87.952 83.115 89.1026C82.3003 91.396 81.4084 93.6546 80.459 95.8879" fill="#FDDE73"/>
<path d="M64.8794 36.912C64.6367 36.6587 64.4607 36.3213 64.381 35.96C64.1711 35.0173 64.5211 34.2213 65.4403 34.0053C65.3367 34.536 65.2826 35.0853 65.2826 35.6467C65.2826 36.048 65.3107 36.4413 65.3648 36.828C65.2086 36.8787 65.0466 36.908 64.8794 36.912" fill="white"/>
<path d="M65.3649 36.828C65.3107 36.4413 65.2826 36.048 65.2826 35.6467C65.2826 35.0853 65.3367 34.536 65.4403 34.0053C65.5237 33.9853 65.6117 33.9707 65.7045 33.9613C65.7425 33.9573 65.7799 33.9547 65.8169 33.9547C65.8398 33.9547 65.8622 33.956 65.8851 33.9573L65.8081 34.0347C65.6867 34.5173 65.6226 35.704 65.7862 36.6333C65.6502 36.7147 65.5097 36.78 65.3649 36.828" fill="#FDE8BA"/>
<path d="M65.7861 36.6334C65.6225 35.704 65.6867 34.5174 65.808 34.0347L65.8851 33.9574C66.4757 33.9974 66.9163 34.5453 67.1553 35.1507C66.7752 35.7627 66.3159 36.316 65.7861 36.6334Z" fill="#F9DFB4"/>
<path d="M67.1554 35.1507C66.5721 36.088 65.8045 36.8893 64.8794 36.912C65.2018 37.248 65.6445 37.4333 66.169 37.2867C67.0387 37.0693 67.5054 36.6027 67.319 35.7027C67.2857 35.5213 67.2283 35.332 67.1554 35.1507Z" fill="#CAC7B7"/>
<path d="M71.4544 35.6907C71.134 35.3147 70.6835 34.976 70.3184 34.5493L69.8033 34.164C69.5252 34.256 69.2809 34.4973 69.1053 34.824C69.294 34.3573 69.7159 34.0307 70.3741 33.9613C70.4121 33.9573 70.4496 33.9547 70.4867 33.9547C71.1116 33.9547 71.5768 34.5213 71.8257 35.1507C71.7096 35.3373 71.5856 35.5187 71.4544 35.6907Z" fill="#FDE8BA"/>
<path d="M69.5501 36.912C69.3064 36.6587 69.1315 36.3213 69.0507 35.96C68.9569 35.5387 68.9752 35.148 69.1053 34.824C69.2809 34.4973 69.5252 34.256 69.8033 34.164L70.3184 34.5493C70.6835 34.976 71.134 35.3147 71.4544 35.6907C70.9293 36.3773 70.2897 36.8933 69.5501 36.912Z" fill="#F9DFB4"/>
<path d="M71.8264 35.1507C71.242 36.088 70.4747 36.8893 69.5497 36.912C69.8717 37.248 70.3144 37.4333 70.8398 37.2867C71.7092 37.0693 72.1758 36.6027 71.9888 35.7027C71.9554 35.5213 71.8982 35.332 71.8264 35.1507Z" fill="#CAC7B7"/>
<path d="M82.7004 36.912C82.5337 36.908 82.3724 36.8787 82.2164 36.828C82.271 36.4427 82.299 36.048 82.299 35.6467C82.299 35.0853 82.2444 34.5373 82.1404 34.0053C83.059 34.2226 83.4097 35.0173 83.2004 35.96C83.119 36.3213 82.943 36.6587 82.7004 36.912" fill="white"/>
<path d="M82.2163 36.828C82.0417 36.7707 81.875 36.688 81.7137 36.5827C81.8603 36.1253 81.7777 35.4853 81.2737 34.6787L81.0497 34.2307C81.255 34.06 81.4937 33.9547 81.763 33.9547C81.8003 33.9547 81.8377 33.9573 81.8764 33.9613C81.9697 33.9707 82.0577 33.9866 82.1404 34.0053C82.2444 34.5373 82.299 35.0853 82.299 35.6467C82.299 36.048 82.271 36.4427 82.2163 36.828" fill="#FDE8BA"/>
<path d="M81.7136 36.5826C81.2176 36.2586 80.7856 35.7306 80.4243 35.1506C80.5656 34.792 80.7776 34.4547 81.0496 34.2307L81.2736 34.6786C81.7776 35.4853 81.8603 36.1253 81.7136 36.5826" fill="#F9DFB4"/>
<path d="M80.4243 35.1507C81.0083 36.088 81.7763 36.8893 82.7003 36.912C82.379 37.248 81.9363 37.4333 81.411 37.2867C80.5417 37.0693 80.075 36.6027 80.2604 35.7027C80.295 35.5213 80.3523 35.332 80.4243 35.1507" fill="#CAC7B7"/>
<path d="M76.6243 36.912C76.459 36.908 76.299 36.8787 76.143 36.8293C76.439 36.0693 76.2283 35.012 74.9581 34.5493L75.2159 34.292C75.1502 34.2853 75.0857 34.2827 75.0237 34.2827C74.9846 34.2827 74.9466 34.284 74.9097 34.2867C75.1283 34.084 75.3897 33.9547 75.6883 33.9547C75.7243 33.9547 75.763 33.9573 75.8003 33.9613C76.9163 34.0787 77.3523 34.9307 77.123 35.96C77.043 36.3213 76.867 36.6587 76.6243 36.912" fill="#FDE8BA"/>
<path d="M76.143 36.8293C75.431 36.5973 74.8278 35.92 74.3488 35.1507C74.4789 34.8213 74.6685 34.5093 74.9097 34.2867C74.9466 34.284 74.9846 34.2827 75.0237 34.2827C75.0857 34.2827 75.1502 34.2853 75.216 34.292L74.9581 34.5493C76.2284 35.012 76.439 36.0693 76.143 36.8293" fill="#F9DFB4"/>
<path d="M74.3487 35.1507C74.932 36.088 75.7003 36.8893 76.6243 36.912C76.3029 37.248 75.8603 37.4333 75.3349 37.2867C74.4653 37.0693 73.9987 36.6027 74.1851 35.7027C74.2195 35.5213 74.2757 35.332 74.3487 35.1507Z" fill="#CAC7B7"/>
<path d="M37.3721 117.416C35.3737 116.292 35.1237 120.039 35.1237 121.413C34.9988 124.661 34.7493 127.535 38.6217 127.535C41.2445 127.535 45.242 128.033 45.8664 125.036C46.2414 123.412 46.2414 119.04 44.743 118.165L37.3721 117.416" fill="#E99113"/>
<path d="M56.6691 118.089C52.9217 118.84 54.5461 124.461 58.2936 124.461C60.2925 124.461 61.7909 122.837 61.2915 120.713C60.7915 118.589 58.7931 118.089 57.0441 117.965L56.6691 118.089" fill="#E99113"/>
<path d="M70.1611 117.465C66.6632 117.716 67.9127 126.584 70.4111 127.209C71.9102 127.584 76.407 126.835 77.9057 126.084C79.2803 125.211 80.2803 120.088 78.1563 119.089L70.1611 117.465Z" fill="#E99113"/>
<path d="M89.1484 118.34C85.7764 117.965 84.7764 124.211 88.5244 124.96C90.1484 125.335 91.3977 124.336 91.7724 122.712C92.147 120.839 90.8977 119.713 89.6484 118.589L89.1484 118.34" fill="#E99113"/>
<path d="M109.011 116.84C108.387 116.716 107.263 117.091 106.263 117.34C105.39 117.465 103.015 117.216 102.266 117.716C100.892 118.589 101.516 124.711 102.766 125.96C103.764 126.959 110.011 127.459 111.01 126.335C111.884 125.211 111.635 118.715 110.511 117.591C110.511 117.591 110.511 117.591 110.386 117.591L109.011 116.84Z" fill="#E99113"/>
<path d="M41.0941 124.389C39.1206 121.429 37.1455 120.343 35.0674 121.524V123.907C35.0674 125.144 36.07 126.147 37.307 126.147H42.4674C43.7039 126.147 44.707 125.144 44.707 123.907V122.604C43.8788 122.399 42.9294 122.948 41.0941 124.389Z" fill="#A91F28"/>
<path d="M42.4674 116.507H37.307C36.07 116.507 35.0674 117.509 35.0674 118.745V121.524C37.1455 120.343 39.1206 121.429 41.0941 124.389C42.9294 122.948 43.8788 122.399 44.707 122.604V118.745C44.707 117.509 43.7039 116.507 42.4674 116.507" fill="#D21D2E"/>
<path d="M40.5747 117.517C38.3476 118.075 40.3528 120.859 42.0231 120.412C44.2502 119.856 42.0231 118.075 40.6862 117.74L40.5747 117.517" fill="#ED1D3B"/>
<path d="M55.5137 124.053C54.8492 123.479 54.4205 122.641 54.4205 121.695C54.4205 121.387 54.4648 121.089 54.5476 120.808C54.6096 121.911 55.2184 123.081 56.2111 123.792C55.982 123.903 55.7492 123.992 55.5137 124.053Z" fill="#FDE8BA"/>
<path d="M56.2111 123.792C55.2184 123.081 54.6096 121.911 54.5476 120.808C54.9299 119.513 56.1283 118.568 57.5481 118.568C58.5091 118.568 59.3585 119.011 59.932 119.692C59.1017 121.28 57.7397 123.047 56.2111 123.792" fill="#F9DFB4"/>
<path d="M59.9321 119.692C58.9774 121.517 57.3195 123.581 55.5138 124.053C56.0617 124.527 56.7669 124.824 57.5482 124.824C59.2753 124.824 60.6758 123.423 60.6758 121.695C60.6758 120.929 60.3898 120.236 59.9321 119.692" fill="#CAC7B7"/>
<path d="M78.443 121.272V118.745C78.443 117.509 77.4404 116.507 76.203 116.507H71.0436C69.8065 116.507 68.804 117.509 68.804 118.745V121.524V121.867C70.0305 122.037 71.1425 122.859 72.6884 123.031C75.6057 123.42 76.9937 122.952 78.443 121.272" fill="#D21D2E"/>
<path d="M72.6884 123.031C71.1425 122.859 70.0305 122.037 68.804 121.867V123.907C68.804 125.144 69.8065 126.147 71.0436 126.147H76.203C77.4404 126.147 78.443 125.144 78.443 123.907V122.604V121.272C76.9937 122.952 75.6057 123.42 72.6884 123.031" fill="#A91F28"/>
<path d="M73.3982 117.512C71.531 117.681 69.5956 118.476 69.8669 119.744C70.4242 122.195 72.7627 119.076 73.6534 118.965C74.0997 118.965 77.775 120.859 76.5497 118.297C76.227 117.62 74.8326 117.381 73.3982 117.512" fill="#ED1D3B"/>
<path d="M106.167 124.389C108.142 121.429 110.116 120.343 112.195 121.524V123.907C112.195 125.144 111.192 126.147 109.955 126.147H104.795C103.558 126.147 102.555 125.144 102.555 123.907V122.604C103.383 122.399 104.332 122.948 106.167 124.389Z" fill="#A91F28"/>
<path d="M104.795 116.507H109.955C111.192 116.507 112.195 117.509 112.195 118.745V121.524C110.116 120.343 108.142 121.429 106.167 124.389C104.332 122.948 103.383 122.399 102.555 122.604V118.745C102.555 117.509 103.558 116.507 104.795 116.507Z" fill="#D21D2E"/>
<path d="M106.51 117.963C105.063 117.629 103.948 120.524 106.622 120.189C108.96 119.856 110.631 117.184 107.178 117.851L106.51 117.963Z" fill="#ED1D3B"/>
<path d="M91.7483 124.053C91.5896 124.012 91.4323 123.957 91.2763 123.893C91.5003 123.557 91.6696 123.157 91.7723 122.712C92.1469 120.839 90.8976 119.713 89.6483 118.589L89.6083 118.569C89.6429 118.568 89.6789 118.568 89.7136 118.568C91.4416 118.568 92.8416 119.968 92.8416 121.695C92.8416 122.641 92.4123 123.479 91.7483 124.053" fill="#FDE8BA"/>
<path d="M91.2763 123.893C89.6563 123.22 88.2016 121.357 87.3296 119.692C87.8816 119.035 88.6909 118.6 89.6083 118.569L89.6483 118.589C90.8976 119.713 92.1469 120.839 91.7723 122.712C91.6696 123.157 91.5003 123.557 91.2763 123.893Z" fill="#F9DFB4"/>
<path d="M87.3297 119.692C88.2857 121.517 89.943 123.581 91.7484 124.053C91.2004 124.527 90.495 124.824 89.7137 124.824C87.9857 124.824 86.5857 123.423 86.5857 121.695C86.5857 120.929 86.8724 120.236 87.3297 119.692" fill="#CAC7B7"/>
<path d="M72.5883 92.3133C70.2274 91.5613 69.4763 96.1759 71.6225 97.3559C75.1643 99.1813 74.7346 94.5666 73.1247 92.8493L72.5883 92.3133" fill="#E99113"/>
<path d="M72.2659 77.932C69.2616 77.3946 70.1206 81.7946 72.0512 82.6533C73.4471 83.2986 74.5206 83.1906 74.7346 81.4733C74.8424 79.9706 73.8763 79.1119 73.0179 78.0386L72.2659 77.932" fill="#E99113"/>
<path d="M72.2659 64.8386C69.7982 64.4093 68.5096 67.5213 70.4419 69.5599C71.5148 70.6333 73.0179 70.6333 73.8763 69.2386C74.6274 67.9506 73.7684 66.9853 73.3398 65.804L72.2659 64.8386" fill="#E99113"/>
<path d="M72.9101 53.4626C72.5883 53.1399 71.6225 52.9253 70.9788 53.4626C69.4763 54.4279 70.6564 56.1452 71.5148 57.1106C74.7345 60.4386 75.0564 55.4999 73.232 53.6759L72.9101 53.4626Z" fill="#E99113"/>
<path d="M74.3034 56.0373C74.1878 55.1813 73.8221 54.2653 73.2321 53.676L72.9102 53.4626C72.7586 53.3106 72.4654 53.1826 72.1294 53.1466C72.4154 52.988 72.7597 52.8826 73.1627 52.84C73.2201 52.8333 73.2769 52.8307 73.3326 52.8307C74.2769 52.8307 74.9805 53.688 75.3563 54.636C75.0409 55.1453 74.6887 55.6267 74.3034 56.0373Z" fill="#FDE8BA"/>
<path d="M71.9163 57.3C71.5497 56.9173 71.2836 56.4066 71.1628 55.8613C70.8997 54.6773 71.219 53.6493 72.1294 53.1466C72.4654 53.1826 72.7586 53.3106 72.9102 53.4626L73.2321 53.6759C73.8221 54.2653 74.1878 55.1813 74.3034 56.0373C73.6127 56.772 72.8133 57.2786 71.9163 57.3" fill="#F9DFB4"/>
<path d="M75.3563 54.636C74.4752 56.0546 73.3137 57.2666 71.9163 57.2999C72.4033 57.8079 73.072 58.0879 73.8659 57.8666C75.1809 57.5373 75.8869 56.8333 75.6029 55.4706C75.5523 55.1973 75.4656 54.9133 75.3563 54.636Z" fill="#CAC7B7"/>
<path d="M74.1133 67.7079C73.9663 67.0773 73.5836 66.4746 73.3398 65.804L72.2982 64.8666C72.431 64.8346 72.5721 64.8093 72.7212 64.7946C72.7784 64.788 72.8352 64.7853 72.8909 64.7853C73.8352 64.7853 74.5388 65.6413 74.9154 66.5906C74.6696 66.9866 74.4018 67.3666 74.1133 67.7079" fill="#FDE8BA"/>
<path d="M71.4752 69.2546C71.1086 68.8719 70.8424 68.3613 70.7211 67.8159C70.4059 66.3973 70.9268 65.2026 72.2982 64.8666L73.3398 65.804C73.5835 66.4746 73.9663 67.0773 74.1132 67.7079C73.3674 68.5933 72.4826 69.2306 71.4752 69.2546" fill="#F9DFB4"/>
<path d="M74.9154 66.5906C74.0335 68.0093 72.872 69.22 71.4752 69.2546C71.9622 69.7626 72.631 70.0426 73.4242 69.8213C74.7392 69.492 75.4456 68.788 75.1616 67.4253C75.1111 67.152 75.0247 66.868 74.9154 66.5906" fill="#CAC7B7"/>
<path d="M74.6591 80.5506C74.4148 79.5746 73.684 78.872 73.0179 78.0386L72.7424 78C72.8283 77.984 72.9168 77.9706 73.008 77.9613C73.0659 77.9546 73.122 77.952 73.1783 77.952C74.122 77.952 74.8263 78.808 75.2018 79.7573C75.031 80.032 74.8502 80.2986 74.6591 80.5506" fill="#FDE8BA"/>
<path d="M71.7621 82.4213C71.3955 82.0386 71.1293 81.5279 71.0085 80.9826C70.6815 79.5119 71.2539 78.2799 72.7424 77.9999L73.0179 78.0386C73.684 78.8719 74.4148 79.5746 74.6591 80.5506C73.8621 81.6013 72.8887 82.3933 71.7621 82.4213" fill="#F9DFB4"/>
<path d="M75.2018 79.7573C74.3211 81.176 73.1597 82.3867 71.7622 82.4213C72.2493 82.9293 72.9179 83.2093 73.7111 82.988C75.0269 82.6587 75.731 81.9547 75.4497 80.592C75.3977 80.3187 75.3123 80.0347 75.2018 79.7573" fill="#CAC7B7"/>
<path d="M74.281 95.4373C74.1444 94.492 73.7132 93.4773 73.1247 92.8493L72.5883 92.3133C72.5367 92.296 72.4851 92.2827 72.4346 92.2707C72.6976 92.1453 73.005 92.0586 73.357 92.0213C73.4148 92.016 73.4711 92.0133 73.5268 92.0133C74.4711 92.0133 75.1752 92.8693 75.551 93.8186C75.1768 94.42 74.7523 94.9853 74.281 95.4373Z" fill="#FDE8BA"/>
<path d="M72.1107 96.4826C71.744 96.0986 71.4777 95.5893 71.3575 95.044C71.0829 93.812 71.4392 92.7493 72.4345 92.2707C72.4851 92.2827 72.5367 92.296 72.5883 92.3133L73.1247 92.8493C73.7132 93.4773 74.1444 94.492 74.2809 95.4373C73.6413 96.0533 72.9153 96.4626 72.1107 96.4826Z" fill="#F9DFB4"/>
<path d="M75.551 93.8186C74.669 95.2373 73.5086 96.448 72.1107 96.4826C72.5982 96.9906 73.2663 97.2706 74.0597 97.0493C75.375 96.7186 76.0803 96.0146 75.7977 94.6533C75.747 94.38 75.6603 94.096 75.551 93.8186" fill="#CAC7B7"/>
</svg>
