<svg width="20" height="20" viewBox="0 0 20 20" fill="none" xmlns="http://www.w3.org/2000/svg">
<path d="M5.51606 14.224C3.25406 11.792 3.29406 7.98 5.64406 5.613C6.56506 4.6813 7.76262 4.07235 9.05806 3.877L8.98906 1.8C7.17048 2.01958 5.47975 2.8482 4.19206 4.151C1.04306 7.321 1.00506 12.44 4.06906 15.682L2.32806 17.434L7.83806 17.735L7.82306 11.901L5.51606 14.224V14.224ZM12.1631 2.265L12.1781 8.099L14.4851 5.777C16.7471 8.211 16.7071 12.023 14.3571 14.388C13.4362 15.3199 12.2386 15.9289 10.9431 16.124L11.0121 18.2C12.8306 17.9801 14.5215 17.152 15.8101 15.85C18.9581 12.678 18.9961 7.559 15.9321 4.319L17.6731 2.565L12.1631 2.265V2.265Z" fill="black"/>
</svg>
